<svg width="104" height="100" viewBox="0 0 104 100" fill="none" xmlns="http://www.w3.org/2000/svg">
<path d="M53.8698 69.64C50.4564 69.64 47.8751 68.68 46.1257 66.76C44.3764 64.7973 43.5017 62.0027 43.5017 58.376V55.816H50.1577V58.888C50.1577 61.7893 51.3738 63.24 53.8058 63.24C55.0004 63.24 55.8964 62.8987 56.4938 62.216C57.1338 61.4907 57.4538 60.3387 57.4538 58.76C57.4538 56.8827 57.0271 55.24 56.1738 53.832C55.3204 52.3813 53.7418 50.6533 51.4378 48.648C48.5364 46.088 46.5097 43.784 45.3577 41.736C44.2057 39.6453 43.6297 37.2987 43.6297 34.696C43.6297 31.1547 44.5257 28.424 46.3177 26.504C48.1097 24.5413 50.7124 23.56 54.1258 23.56C57.4964 23.56 60.0351 24.5413 61.7418 26.504C63.4911 28.424 64.3658 31.1973 64.3658 34.824V36.68H57.7098V34.376C57.7098 32.84 57.4111 31.7307 56.8138 31.048C56.2164 30.3227 55.3418 29.96 54.1898 29.96C51.8431 29.96 50.6697 31.3893 50.6697 34.248C50.6697 35.8693 51.0964 37.384 51.9498 38.792C52.8458 40.2 54.4458 41.9067 56.7498 43.912C59.6938 46.472 61.7204 48.7973 62.8298 50.888C63.9391 52.9787 64.4938 55.432 64.4938 58.248C64.4938 61.9173 63.5764 64.7333 61.7418 66.696C59.9498 68.6587 57.3258 69.64 53.8698 69.64Z" fill="#0A33C4"/>
<path d="M51.8698 69.64C48.4564 69.64 45.8751 68.68 44.1258 66.76C42.3764 64.7973 41.5018 62.0027 41.5018 58.376V55.816H48.1578V58.888C48.1578 61.7893 49.3738 63.24 51.8058 63.24C53.0004 63.24 53.8964 62.8987 54.4938 62.216C55.1338 61.4907 55.4538 60.3387 55.4538 58.76C55.4538 56.8827 55.0271 55.24 54.1738 53.832C53.3204 52.3813 51.7418 50.6533 49.4378 48.648C46.5364 46.088 44.5098 43.784 43.3578 41.736C42.2058 39.6453 41.6298 37.2987 41.6298 34.696C41.6298 31.1547 42.5258 28.424 44.3177 26.504C46.1098 24.5413 48.7124 23.56 52.1258 23.56C55.4964 23.56 58.0351 24.5413 59.7418 26.504C61.4911 28.424 62.3658 31.1973 62.3658 34.824V36.68H55.7098V34.376C55.7098 32.84 55.4111 31.7307 54.8138 31.048C54.2164 30.3227 53.3418 29.96 52.1898 29.96C49.8431 29.96 48.6698 31.3893 48.6698 34.248C48.6698 35.8693 49.0964 37.384 49.9498 38.792C50.8458 40.2 52.4458 41.9067 54.7498 43.912C57.6938 46.472 59.7204 48.7973 60.8298 50.888C61.9391 52.9787 62.4938 55.432 62.4938 58.248C62.4938 61.9173 61.5764 64.7333 59.7418 66.696C57.9498 68.6587 55.3258 69.64 51.8698 69.64Z" fill="#4DF2AD"/>
<path d="M49.8698 69.64C46.4564 69.64 43.8751 68.68 42.1258 66.76C40.3764 64.7973 39.5018 62.0027 39.5018 58.376V55.816H46.1578V58.888C46.1578 61.7893 47.3738 63.24 49.8058 63.24C51.0004 63.24 51.8964 62.8987 52.4938 62.216C53.1338 61.4907 53.4538 60.3387 53.4538 58.76C53.4538 56.8827 53.0271 55.24 52.1738 53.832C51.3204 52.3813 49.7418 50.6533 47.4378 48.648C44.5364 46.088 42.5098 43.784 41.3578 41.736C40.2058 39.6453 39.6298 37.2987 39.6298 34.696C39.6298 31.1547 40.5258 28.424 42.3177 26.504C44.1098 24.5413 46.7124 23.56 50.1258 23.56C53.4964 23.56 56.0351 24.5413 57.7418 26.504C59.4911 28.424 60.3658 31.1973 60.3658 34.824V36.68H53.7098V34.376C53.7098 32.84 53.4111 31.7307 52.8138 31.048C52.2164 30.3227 51.3418 29.96 50.1898 29.96C47.8431 29.96 46.6698 31.3893 46.6698 34.248C46.6698 35.8693 47.0964 37.384 47.9498 38.792C48.8458 40.2 50.4458 41.9067 52.7498 43.912C55.6938 46.472 57.7204 48.7973 58.8298 50.888C59.9391 52.9787 60.4938 55.432 60.4938 58.248C60.4938 61.9173 59.5764 64.7333 57.7418 66.696C55.9498 68.6587 53.3258 69.64 49.8698 69.64Z" fill="#F24D74"/>
</svg>
